<mxfile host="app.diagrams.net" agent="Mozilla/5.0 (Windows NT 10.0; Win64; x64) AppleWebKit/537.36 (KHTML, like Gecko) Chrome/129.0.0.0 Safari/537.36" version="24.7.17">
  <diagram name="E-Commerce Sales Dashboard Architecture" id="ZeeL3Anb7-8IAxNtEgsL">
    <mxGraphModel dx="1956" dy="964" grid="1" gridSize="10" guides="1" tooltips="1" connect="1" arrows="1" fold="1" page="1" pageScale="1" pageWidth="1169" pageHeight="827" math="0" shadow="0">
      <root>
        <mxCell id="0" />
        <mxCell id="1" parent="0" />
        <mxCell id="Ru8iO7SMFXooMD9qpCoM-23" value="" style="group;fontSize=17;" vertex="1" connectable="0" parent="1">
          <mxGeometry x="30" y="30" width="1110" height="770" as="geometry" />
        </mxCell>
        <mxCell id="Ru8iO7SMFXooMD9qpCoM-18" value="Using WebSocket" style="edgeStyle=orthogonalEdgeStyle;rounded=0;orthogonalLoop=1;jettySize=auto;html=1;startArrow=classic;startFill=1;fontSize=17;" edge="1" parent="Ru8iO7SMFXooMD9qpCoM-23" source="Ru8iO7SMFXooMD9qpCoM-1" target="Ru8iO7SMFXooMD9qpCoM-17">
          <mxGeometry relative="1" as="geometry" />
        </mxCell>
        <mxCell id="Ru8iO7SMFXooMD9qpCoM-1" value="React App (Frontend)" style="rounded=1;whiteSpace=wrap;html=1;fillColor=#d9e8fb;fontSize=17;" vertex="1" parent="Ru8iO7SMFXooMD9qpCoM-23">
          <mxGeometry x="14.439024390243903" y="398.6728971962617" width="252.6829268292683" height="86.35514018691589" as="geometry" />
        </mxCell>
        <mxCell id="Ru8iO7SMFXooMD9qpCoM-20" value="Using WebSocket" style="edgeStyle=orthogonalEdgeStyle;rounded=0;orthogonalLoop=1;jettySize=auto;html=1;startArrow=classic;startFill=1;fontSize=17;" edge="1" parent="Ru8iO7SMFXooMD9qpCoM-23" source="Ru8iO7SMFXooMD9qpCoM-3" target="Ru8iO7SMFXooMD9qpCoM-19">
          <mxGeometry relative="1" as="geometry" />
        </mxCell>
        <mxCell id="Ru8iO7SMFXooMD9qpCoM-3" value=".NET Core API (Backend)" style="rounded=1;whiteSpace=wrap;html=1;fillColor=#aed6f1;fontSize=17;" vertex="1" parent="Ru8iO7SMFXooMD9qpCoM-23">
          <mxGeometry x="402.4878048780488" y="398.6728971962617" width="288.7804878048781" height="86.35514018691589" as="geometry" />
        </mxCell>
        <mxCell id="Ru8iO7SMFXooMD9qpCoM-4" value="SQL Server (Database)" style="rounded=1;whiteSpace=wrap;html=1;fillColor=#abebc6;fontSize=17;" vertex="1" parent="Ru8iO7SMFXooMD9qpCoM-23">
          <mxGeometry y="683.6448598130842" width="288.7804878048781" height="86.35514018691589" as="geometry" />
        </mxCell>
        <mxCell id="Ru8iO7SMFXooMD9qpCoM-5" value="Mosquitto MQTT Broker" style="rounded=1;whiteSpace=wrap;html=1;fillColor=#f5b7b1;fontSize=17;" vertex="1" parent="Ru8iO7SMFXooMD9qpCoM-23">
          <mxGeometry x="194.92682926829266" width="288.7804878048781" height="86.35514018691589" as="geometry" />
        </mxCell>
        <mxCell id="Ru8iO7SMFXooMD9qpCoM-6" value="Freshdesk API (Customer Support)" style="rounded=1;whiteSpace=wrap;html=1;fillColor=#f7cac9;fontSize=17;" vertex="1" parent="Ru8iO7SMFXooMD9qpCoM-23">
          <mxGeometry x="821.219512195122" y="683.6448598130842" width="288.7804878048781" height="86.35514018691589" as="geometry" />
        </mxCell>
        <mxCell id="Ru8iO7SMFXooMD9qpCoM-7" value="PaperCut API (Notifications)" style="rounded=1;whiteSpace=wrap;html=1;fillColor=#fad7a0;fontSize=17;" vertex="1" parent="Ru8iO7SMFXooMD9qpCoM-23">
          <mxGeometry x="406.0975609756098" y="683.6448598130842" width="288.7804878048781" height="86.35514018691589" as="geometry" />
        </mxCell>
        <mxCell id="Ru8iO7SMFXooMD9qpCoM-9" style="edgeStyle=orthogonalEdgeStyle;rounded=1;orthogonalLoop=1;exitX=1;exitY=0.5;exitDx=0;exitDy=0;entryX=0;entryY=0.5;entryDx=0;entryDy=0;fontSize=17;" edge="1" parent="Ru8iO7SMFXooMD9qpCoM-23" source="Ru8iO7SMFXooMD9qpCoM-1" target="Ru8iO7SMFXooMD9qpCoM-3">
          <mxGeometry relative="1" as="geometry" />
        </mxCell>
        <mxCell id="Ru8iO7SMFXooMD9qpCoM-10" style="edgeStyle=orthogonalEdgeStyle;rounded=1;orthogonalLoop=1;exitX=0.5;exitY=1;exitDx=0;exitDy=0;entryX=0.5;entryY=0;entryDx=0;entryDy=0;fontSize=17;" edge="1" parent="Ru8iO7SMFXooMD9qpCoM-23" source="Ru8iO7SMFXooMD9qpCoM-3" target="Ru8iO7SMFXooMD9qpCoM-4">
          <mxGeometry relative="1" as="geometry" />
        </mxCell>
        <mxCell id="Ru8iO7SMFXooMD9qpCoM-11" style="edgeStyle=orthogonalEdgeStyle;rounded=1;orthogonalLoop=1;exitX=0.5;exitY=1;exitDx=0;exitDy=0;entryX=0.5;entryY=0;entryDx=0;entryDy=0;fontSize=17;" edge="1" parent="Ru8iO7SMFXooMD9qpCoM-23" source="Ru8iO7SMFXooMD9qpCoM-3" target="Ru8iO7SMFXooMD9qpCoM-6">
          <mxGeometry relative="1" as="geometry" />
        </mxCell>
        <mxCell id="Ru8iO7SMFXooMD9qpCoM-12" style="edgeStyle=orthogonalEdgeStyle;rounded=1;orthogonalLoop=1;exitX=0.5;exitY=1;exitDx=0;exitDy=0;entryX=0.5;entryY=0;entryDx=0;entryDy=0;fontSize=17;" edge="1" parent="Ru8iO7SMFXooMD9qpCoM-23" source="Ru8iO7SMFXooMD9qpCoM-3" target="Ru8iO7SMFXooMD9qpCoM-7">
          <mxGeometry relative="1" as="geometry" />
        </mxCell>
        <mxCell id="Ru8iO7SMFXooMD9qpCoM-21" value="" style="edgeStyle=orthogonalEdgeStyle;rounded=0;orthogonalLoop=1;jettySize=auto;html=1;fontSize=17;" edge="1" parent="Ru8iO7SMFXooMD9qpCoM-23" source="Ru8iO7SMFXooMD9qpCoM-17" target="Ru8iO7SMFXooMD9qpCoM-5">
          <mxGeometry relative="1" as="geometry" />
        </mxCell>
        <mxCell id="Ru8iO7SMFXooMD9qpCoM-17" value="Frontend Mqtt Client" style="whiteSpace=wrap;html=1;fillColor=#e1d5e7;rounded=1;strokeColor=#9673a6;fontSize=17;" vertex="1" parent="Ru8iO7SMFXooMD9qpCoM-23">
          <mxGeometry x="32.48780487804878" y="197.17757009345794" width="216.58536585365852" height="86.35514018691589" as="geometry" />
        </mxCell>
        <mxCell id="Ru8iO7SMFXooMD9qpCoM-22" value="" style="edgeStyle=orthogonalEdgeStyle;rounded=0;orthogonalLoop=1;jettySize=auto;html=1;fontSize=17;" edge="1" parent="Ru8iO7SMFXooMD9qpCoM-23" source="Ru8iO7SMFXooMD9qpCoM-19" target="Ru8iO7SMFXooMD9qpCoM-5">
          <mxGeometry relative="1" as="geometry" />
        </mxCell>
        <mxCell id="Ru8iO7SMFXooMD9qpCoM-19" value="Backend Mqtt Client" style="whiteSpace=wrap;html=1;fillColor=#e1d5e7;rounded=1;strokeColor=#9673a6;fontSize=17;" vertex="1" parent="Ru8iO7SMFXooMD9qpCoM-23">
          <mxGeometry x="438.5853658536585" y="197.17757009345794" width="216.58536585365852" height="86.35514018691589" as="geometry" />
        </mxCell>
      </root>
    </mxGraphModel>
  </diagram>
</mxfile>
